<svg width="44" height="38" viewBox="0 0 44 38" fill="none" xmlns="http://www.w3.org/2000/svg">
<path d="M20.7743 11.4162C20.6103 17.5206 19.407 23.3528 16.3363 28.7187C14.2136 32.4266 11.038 35.0208 7.49233 37.2381C7.26756 37.3784 6.97856 37.6386 6.73351 37.4088C6.45804 37.1502 6.69633 36.8173 6.8366 36.5587C8.11933 34.2146 9.48657 31.9145 10.6037 29.4809C11.8273 26.814 12.7956 24.061 13.4311 21.1896C13.6001 20.4274 13.4294 20.3429 12.7095 20.4984C6.81632 21.776 1.33556 18.1476 0.182957 12.2358C-0.910492 6.63002 3.02052 1.03603 8.68719 0.136936C15.0941 -0.880459 20.7236 3.90063 20.7743 10.4022C20.776 10.7402 20.7743 11.0782 20.7743 11.4162Z" fill="#1C437F"/>
<path d="M43.4244 11.4702C43.2537 17.8416 41.9693 23.9071 38.5656 29.4081C36.4919 32.7577 33.4972 35.1001 30.249 37.1788C29.9904 37.3445 29.6473 37.6875 29.36 37.3698C29.0998 37.0825 29.409 36.7377 29.5628 36.4487C30.8304 34.0962 32.2145 31.8062 33.3147 29.3642C34.5095 26.7142 35.4661 23.9882 36.0897 21.1439C36.252 20.4036 36.0711 20.3327 35.3968 20.4915C29.4581 21.8858 23.6021 17.8838 22.7301 11.6848C21.9729 6.30375 25.9496 0.931152 31.3103 0.140221C37.8862 -0.826473 43.3906 3.90053 43.4244 10.5423C43.4244 10.8516 43.4244 11.1609 43.4244 11.4702Z" fill="#1C437F"/>
</svg>
