<svg width="84" height="104" viewBox="0 0 84 104" fill="none" xmlns="http://www.w3.org/2000/svg">
<path d="M83.6192 33.0336V93.7612C83.6192 99.416 79.0352 104 73.3805 104H10.2388C4.58402 104 7.68036e-09 99.416 7.68036e-09 93.7612V10.2388C-0.000216659 4.58402 4.5838 0 10.2388 0H52.5295L83.6192 33.0336Z" fill="#F6F9FF"/>
<path d="M83.619 33.0336H59.3552C55.5854 33.0336 52.5293 29.9776 52.5293 26.2078V0L83.619 33.0336Z" fill="#8F9FBE"/>
<path d="M21.8185 73.0353V79.9545H16.9058V59.5701H25.0381C26.5979 59.5701 27.9779 59.8567 29.1778 60.43C30.3777 61.0033 31.3041 61.8232 31.9641 62.8831C32.6173 63.9431 32.9506 65.143 32.9506 66.4893C32.9506 68.4757 32.2373 70.0624 30.8108 71.2556C29.391 72.442 27.4377 73.0353 24.9515 73.0353H21.8185ZM21.8185 69.2423H25.0381C25.9915 69.2423 26.7179 69.0089 27.2178 68.529C27.7176 68.0558 27.9644 67.3824 27.9644 66.516C27.9644 65.5626 27.7044 64.8028 27.1911 64.2295C26.6779 63.6629 25.978 63.3763 25.0914 63.3628H21.8185V69.2423Z" fill="#1C437F"/>
<path d="M35.564 79.9545V59.5701H42.1298C43.9297 59.5701 45.5495 59.9768 46.9892 60.7966C48.4225 61.6098 49.5489 62.7631 50.3556 64.2564C51.1622 65.7429 51.5687 67.4093 51.5754 69.2557V70.1956C51.5754 72.062 51.1822 73.7353 50.3954 75.2151C49.6089 76.695 48.4957 77.8483 47.0625 78.6881C45.6292 79.5214 44.0293 79.9413 42.2696 79.9547H35.564V79.9545ZM40.4769 63.363V76.175H42.1833C43.5964 76.175 44.6763 75.6751 45.4297 74.6685C46.1895 73.6686 46.5696 72.1755 46.5696 70.1956V69.3157C46.5696 67.3426 46.1895 65.8627 45.4297 64.8628C44.6763 63.8629 43.5765 63.363 42.13 63.363H40.4769Z" fill="#1C437F"/>
<path d="M66.9406 71.8354H59.0148V79.9545H54.1021V59.5701H67.7339V63.363H59.0148V68.0558H66.9406V71.8354Z" fill="#1C437F"/>
</svg>
