<svg width="14" height="18" viewBox="0 0 14 18" fill="none" xmlns="http://www.w3.org/2000/svg">
<path d="M6.75 0C4.96052 0.00237379 3.24501 0.714295 1.97965 1.97965C0.714295 3.24501 0.00237379 4.96052 0 6.75C0 11.5959 6.28875 17.6653 6.55594 17.9212C6.60791 17.9718 6.67753 18 6.75 18C6.82247 18 6.89209 17.9718 6.94406 17.9212C7.21125 17.6653 13.5 11.5959 13.5 6.75C13.4976 4.96052 12.7857 3.24501 11.5203 1.97965C10.255 0.714295 8.53948 0.00237379 6.75 0ZM6.75 9.84375C6.13811 9.84375 5.53997 9.6623 5.0312 9.32236C4.52244 8.98241 4.12591 8.49924 3.89175 7.93393C3.65759 7.36862 3.59632 6.74657 3.7157 6.14644C3.83507 5.54631 4.12972 4.99506 4.56239 4.56239C4.99506 4.12972 5.54631 3.83507 6.14644 3.7157C6.74657 3.59632 7.36862 3.65759 7.93393 3.89175C8.49924 4.12591 8.98241 4.52244 9.32236 5.0312C9.6623 5.53997 9.84375 6.13811 9.84375 6.75C9.84326 7.57036 9.51715 8.35698 8.93707 8.93707C8.35699 9.51715 7.57036 9.84326 6.75 9.84375Z" fill="#B9FE2B"/>
</svg>
