<svg width="18" height="12" viewBox="0 0 18 12" fill="none" xmlns="http://www.w3.org/2000/svg">
<path d="M16.7101 1.87759C16.5138 1.13853 15.9355 0.556469 15.2012 0.358938C13.8702 0 8.53334 0 8.53334 0C8.53334 0 3.19647 0 1.8655 0.358938C1.13122 0.5565 0.552906 1.13853 0.356625 1.87759C0 3.21719 0 6.01213 0 6.01213C0 6.01213 0 8.80706 0.356625 10.1467C0.552906 10.8857 1.13122 11.4435 1.8655 11.6411C3.19647 12 8.53334 12 8.53334 12C8.53334 12 13.8702 12 15.2012 11.6411C15.9355 11.4435 16.5138 10.8857 16.7101 10.1467C17.0667 8.80706 17.0667 6.01213 17.0667 6.01213C17.0667 6.01213 17.0667 3.21719 16.7101 1.87759ZM6.78788 8.54972V3.47453L11.2485 6.01219L6.78788 8.54972Z" fill="#FDC938"/>
</svg>
